<mxfile host="app.diagrams.net" agent="Mozilla/5.0 (Windows NT 10.0; Win64; x64) AppleWebKit/537.36 (KHTML, like Gecko) Chrome/131.0.0.0 Safari/537.36" version="24.8.6">
  <diagram name="PÃ¡gina-1" id="fEhHlyWwWaPc7y6RpqGC">
    <mxGraphModel dx="2555" dy="643" grid="1" gridSize="10" guides="1" tooltips="1" connect="1" arrows="1" fold="1" page="1" pageScale="1" pageWidth="827" pageHeight="1169" math="0" shadow="0">
      <root>
        <mxCell id="0" />
        <mxCell id="1" parent="0" />
        <mxCell id="Dm20wUe4UoP7O1psJUx1-31" value="" style="rounded=1;whiteSpace=wrap;html=1;fillColor=none;" parent="1" vertex="1">
          <mxGeometry x="-60" y="405" width="880" height="355" as="geometry" />
        </mxCell>
        <mxCell id="Dm20wUe4UoP7O1psJUx1-2" value="kafka" style="sketch=0;points=[[0,0,0],[0.25,0,0],[0.5,0,0],[0.75,0,0],[1,0,0],[0,1,0],[0.25,1,0],[0.5,1,0],[0.75,1,0],[1,1,0],[0,0.25,0],[0,0.5,0],[0,0.75,0],[1,0.25,0],[1,0.5,0],[1,0.75,0]];outlineConnect=0;fontColor=#232F3E;fillColor=#8C4FFF;strokeColor=#ffffff;dashed=0;verticalLabelPosition=bottom;verticalAlign=top;align=center;html=1;fontSize=12;fontStyle=0;aspect=fixed;shape=mxgraph.aws4.resourceIcon;resIcon=mxgraph.aws4.managed_streaming_for_kafka;" parent="1" vertex="1">
          <mxGeometry x="710" y="480" width="78" height="78" as="geometry" />
        </mxCell>
        <mxCell id="Dm20wUe4UoP7O1psJUx1-47" style="edgeStyle=orthogonalEdgeStyle;rounded=0;orthogonalLoop=1;jettySize=auto;html=1;" parent="1" source="Dm20wUe4UoP7O1psJUx1-37" target="Dm20wUe4UoP7O1psJUx1-46" edge="1">
          <mxGeometry relative="1" as="geometry">
            <Array as="points">
              <mxPoint x="284" y="600" />
              <mxPoint x="362" y="600" />
            </Array>
          </mxGeometry>
        </mxCell>
        <mxCell id="Dm20wUe4UoP7O1psJUx1-37" value="ecs-accounts" style="sketch=0;points=[[0,0,0],[0.25,0,0],[0.5,0,0],[0.75,0,0],[1,0,0],[0,1,0],[0.25,1,0],[0.5,1,0],[0.75,1,0],[1,1,0],[0,0.25,0],[0,0.5,0],[0,0.75,0],[1,0.25,0],[1,0.5,0],[1,0.75,0]];outlineConnect=0;fontColor=#232F3E;fillColor=#ED7100;strokeColor=#ffffff;dashed=0;verticalLabelPosition=bottom;verticalAlign=top;align=center;html=1;fontSize=12;fontStyle=0;aspect=fixed;shape=mxgraph.aws4.resourceIcon;resIcon=mxgraph.aws4.ecs;" parent="1" vertex="1">
          <mxGeometry x="245" y="480" width="78" height="78" as="geometry" />
        </mxCell>
        <mxCell id="Dm20wUe4UoP7O1psJUx1-38" value="redis-accounts" style="image;sketch=0;aspect=fixed;html=1;points=[];align=center;fontSize=12;image=img/lib/mscae/Cache_Redis_Product.svg;" parent="1" vertex="1">
          <mxGeometry x="175" y="624.5" width="83.33" height="70" as="geometry" />
        </mxCell>
        <mxCell id="Dm20wUe4UoP7O1psJUx1-40" style="edgeStyle=orthogonalEdgeStyle;rounded=0;orthogonalLoop=1;jettySize=auto;html=1;" parent="1" source="Dm20wUe4UoP7O1psJUx1-41" target="Dm20wUe4UoP7O1psJUx1-43" edge="1">
          <mxGeometry relative="1" as="geometry" />
        </mxCell>
        <mxCell id="Dm20wUe4UoP7O1psJUx1-41" value="api-gtw-accounts" style="sketch=0;points=[[0,0,0],[0.25,0,0],[0.5,0,0],[0.75,0,0],[1,0,0],[0,1,0],[0.25,1,0],[0.5,1,0],[0.75,1,0],[1,1,0],[0,0.25,0],[0,0.5,0],[0,0.75,0],[1,0.25,0],[1,0.5,0],[1,0.75,0]];outlineConnect=0;fontColor=#232F3E;fillColor=#E7157B;strokeColor=#ffffff;dashed=0;verticalLabelPosition=bottom;verticalAlign=top;align=center;html=1;fontSize=12;fontStyle=0;aspect=fixed;shape=mxgraph.aws4.resourceIcon;resIcon=mxgraph.aws4.api_gateway;" parent="1" vertex="1">
          <mxGeometry x="-95" y="480" width="78" height="78" as="geometry" />
        </mxCell>
        <mxCell id="Dm20wUe4UoP7O1psJUx1-42" style="edgeStyle=orthogonalEdgeStyle;rounded=0;orthogonalLoop=1;jettySize=auto;html=1;" parent="1" source="Dm20wUe4UoP7O1psJUx1-43" target="Dm20wUe4UoP7O1psJUx1-37" edge="1">
          <mxGeometry relative="1" as="geometry" />
        </mxCell>
        <mxCell id="Dm20wUe4UoP7O1psJUx1-43" value="nlb-accounts" style="sketch=0;outlineConnect=0;fontColor=#232F3E;gradientColor=none;fillColor=#8C4FFF;strokeColor=none;dashed=0;verticalLabelPosition=bottom;verticalAlign=top;align=center;html=1;fontSize=12;fontStyle=0;aspect=fixed;pointerEvents=1;shape=mxgraph.aws4.network_load_balancer;" parent="1" vertex="1">
          <mxGeometry x="75" y="480" width="78" height="78" as="geometry" />
        </mxCell>
        <mxCell id="Dm20wUe4UoP7O1psJUx1-45" style="edgeStyle=orthogonalEdgeStyle;rounded=0;orthogonalLoop=1;jettySize=auto;html=1;entryX=0.493;entryY=-0.037;entryDx=0;entryDy=0;entryPerimeter=0;" parent="1" source="Dm20wUe4UoP7O1psJUx1-37" target="Dm20wUe4UoP7O1psJUx1-38" edge="1">
          <mxGeometry relative="1" as="geometry">
            <Array as="points">
              <mxPoint x="284" y="600" />
              <mxPoint x="216" y="600" />
            </Array>
          </mxGeometry>
        </mxCell>
        <mxCell id="Dm20wUe4UoP7O1psJUx1-46" value="rds-accounts" style="sketch=0;points=[[0,0,0],[0.25,0,0],[0.5,0,0],[0.75,0,0],[1,0,0],[0,1,0],[0.25,1,0],[0.5,1,0],[0.75,1,0],[1,1,0],[0,0.25,0],[0,0.5,0],[0,0.75,0],[1,0.25,0],[1,0.5,0],[1,0.75,0]];outlineConnect=0;fontColor=#232F3E;fillColor=#C925D1;strokeColor=#ffffff;dashed=0;verticalLabelPosition=bottom;verticalAlign=top;align=center;html=1;fontSize=12;fontStyle=0;aspect=fixed;shape=mxgraph.aws4.resourceIcon;resIcon=mxgraph.aws4.rds;" parent="1" vertex="1">
          <mxGeometry x="323" y="630" width="78" height="78" as="geometry" />
        </mxCell>
        <mxCell id="Dm20wUe4UoP7O1psJUx1-49" style="edgeStyle=orthogonalEdgeStyle;rounded=0;orthogonalLoop=1;jettySize=auto;html=1;flowAnimation=1;fillColor=#f8cecc;strokeColor=#b85450;" parent="1" source="Dm20wUe4UoP7O1psJUx1-37" edge="1">
          <mxGeometry relative="1" as="geometry">
            <Array as="points">
              <mxPoint x="710" y="500" />
            </Array>
            <mxPoint x="710" y="500" as="targetPoint" />
          </mxGeometry>
        </mxCell>
        <mxCell id="Dm20wUe4UoP7O1psJUx1-53" value="transactions" style="edgeLabel;html=1;align=center;verticalAlign=middle;resizable=0;points=[];" parent="Dm20wUe4UoP7O1psJUx1-49" vertex="1" connectable="0">
          <mxGeometry x="-0.5939" y="2" relative="1" as="geometry">
            <mxPoint as="offset" />
          </mxGeometry>
        </mxCell>
        <mxCell id="Dm20wUe4UoP7O1psJUx1-54" style="edgeStyle=orthogonalEdgeStyle;rounded=0;orthogonalLoop=1;jettySize=auto;html=1;fillColor=#e1d5e7;strokeColor=#9673a6;flowAnimation=1;" parent="1" source="Dm20wUe4UoP7O1psJUx1-2" edge="1">
          <mxGeometry relative="1" as="geometry">
            <Array as="points">
              <mxPoint x="323" y="520" />
            </Array>
            <mxPoint x="323" y="520" as="targetPoint" />
          </mxGeometry>
        </mxCell>
        <mxCell id="Dm20wUe4UoP7O1psJUx1-55" value="accounts-request" style="edgeLabel;html=1;align=center;verticalAlign=middle;resizable=0;points=[];" parent="Dm20wUe4UoP7O1psJUx1-54" vertex="1" connectable="0">
          <mxGeometry x="0.491" relative="1" as="geometry">
            <mxPoint x="-20" as="offset" />
          </mxGeometry>
        </mxCell>
        <mxCell id="Dm20wUe4UoP7O1psJUx1-56" style="edgeStyle=orthogonalEdgeStyle;rounded=0;orthogonalLoop=1;jettySize=auto;html=1;fillColor=#e1d5e7;strokeColor=#9673a6;flowAnimation=1;" parent="1" source="Dm20wUe4UoP7O1psJUx1-37" edge="1">
          <mxGeometry relative="1" as="geometry">
            <Array as="points">
              <mxPoint x="710" y="540" />
            </Array>
            <mxPoint x="710" y="540" as="targetPoint" />
          </mxGeometry>
        </mxCell>
        <mxCell id="Dm20wUe4UoP7O1psJUx1-57" value="created-accounts" style="edgeLabel;html=1;align=center;verticalAlign=middle;resizable=0;points=[];" parent="Dm20wUe4UoP7O1psJUx1-56" vertex="1" connectable="0">
          <mxGeometry x="-0.5141" relative="1" as="geometry">
            <mxPoint x="-19" as="offset" />
          </mxGeometry>
        </mxCell>
        <mxCell id="06yiV6FinO8Q000Hqary-3" value="MOTOR DE ANALISE DE PROPOSTAS" style="rounded=0;whiteSpace=wrap;html=1;" vertex="1" parent="1">
          <mxGeometry x="450" y="290" width="120" height="60" as="geometry" />
        </mxCell>
        <mxCell id="06yiV6FinO8Q000Hqary-4" style="edgeStyle=orthogonalEdgeStyle;rounded=0;orthogonalLoop=1;jettySize=auto;html=1;entryX=0.25;entryY=0;entryDx=0;entryDy=0;entryPerimeter=0;flowAnimation=1;fillColor=#e1d5e7;strokeColor=#9673A6;startArrow=classic;startFill=1;" edge="1" parent="1" source="06yiV6FinO8Q000Hqary-3" target="Dm20wUe4UoP7O1psJUx1-2">
          <mxGeometry relative="1" as="geometry" />
        </mxCell>
        <mxCell id="06yiV6FinO8Q000Hqary-6" value="LEDGER" style="rounded=0;whiteSpace=wrap;html=1;" vertex="1" parent="1">
          <mxGeometry x="450" y="200" width="120" height="60" as="geometry" />
        </mxCell>
        <mxCell id="06yiV6FinO8Q000Hqary-7" style="edgeStyle=orthogonalEdgeStyle;rounded=0;orthogonalLoop=1;jettySize=auto;html=1;entryX=0.5;entryY=0;entryDx=0;entryDy=0;entryPerimeter=0;fillColor=#ffe6cc;strokeColor=#B85450;flowAnimation=1;" edge="1" parent="1" source="06yiV6FinO8Q000Hqary-6" target="Dm20wUe4UoP7O1psJUx1-2">
          <mxGeometry relative="1" as="geometry" />
        </mxCell>
        <mxCell id="06yiV6FinO8Q000Hqary-8" value="CONTABIL" style="rounded=0;whiteSpace=wrap;html=1;" vertex="1" parent="1">
          <mxGeometry x="450" y="110" width="120" height="60" as="geometry" />
        </mxCell>
        <mxCell id="06yiV6FinO8Q000Hqary-9" style="edgeStyle=orthogonalEdgeStyle;rounded=0;orthogonalLoop=1;jettySize=auto;html=1;entryX=0.75;entryY=0;entryDx=0;entryDy=0;entryPerimeter=0;flowAnimation=1;strokeColor=#B85450;" edge="1" parent="1" source="06yiV6FinO8Q000Hqary-8" target="Dm20wUe4UoP7O1psJUx1-2">
          <mxGeometry relative="1" as="geometry" />
        </mxCell>
      </root>
    </mxGraphModel>
  </diagram>
</mxfile>
